<svg width="1024" height="1024" viewBox="0 0 1024 1024" fill="none" xmlns="http://www.w3.org/2000/svg">
  <defs>
    <linearGradient id="bg" x1="120" y1="120" x2="920" y2="920" gradientUnits="userSpaceOnUse">
      <stop stop-color="#07182A"/>
      <stop offset="1" stop-color="#12517A"/>
    </linearGradient>
    <radialGradient id="glow" cx="0" cy="0" r="1" gradientUnits="userSpaceOnUse" gradientTransform="translate(512 520) rotate(90) scale(280)">
      <stop stop-color="#5FC4F0" stop-opacity="0.42"/>
      <stop offset="1" stop-color="#5FC4F0" stop-opacity="0"/>
    </radialGradient>
    <linearGradient id="eyeFill" x1="512" y1="404" x2="512" y2="656" gradientUnits="userSpaceOnUse">
      <stop stop-color="#FAFCFF"/>
      <stop offset="1" stop-color="#D4E8F6"/>
    </linearGradient>
    <radialGradient id="iris" cx="0" cy="0" r="1" gradientUnits="userSpaceOnUse" gradientTransform="translate(512 534) rotate(90) scale(112)">
      <stop stop-color="#ABF8FF"/>
      <stop offset="1" stop-color="#1499D5"/>
    </radialGradient>
  </defs>

  <rect x="64" y="64" width="896" height="896" rx="228" fill="url(#bg)"/>
  <circle cx="512" cy="520" r="280" fill="url(#glow)"/>

  <path d="M782 354A316 316 0 0 1 690 758" stroke="#A8E9FF" stroke-opacity="0.56" stroke-width="22" stroke-linecap="round"/>
  <path d="M318 728A316 316 0 0 1 248 424" stroke="#A8E9FF" stroke-opacity="0.56" stroke-width="22" stroke-linecap="round"/>
  <path d="M742 276A316 316 0 0 1 806 338" stroke="#A8E9FF" stroke-opacity="0.56" stroke-width="22" stroke-linecap="round"/>

  <path d="M217 532C309 398 415 407 512 407C609 407 715 398 807 532C715 666 609 657 512 657C415 657 309 666 217 532Z" fill="url(#eyeFill)" stroke="#D6F3FF" stroke-opacity="0.5" stroke-width="8"/>
  <path d="M258 532C362 450 662 450 766 532" stroke="#7ADEFF" stroke-width="18" stroke-linecap="round"/>

  <circle cx="512" cy="534" r="112" fill="url(#iris)"/>
  <circle cx="512" cy="534" r="50" fill="#081F34"/>
  <circle cx="476" cy="499" r="14" fill="#E8FBFF"/>

  <path d="M676 412L687 431L708 442L687 453L676 472L665 453L644 442L665 431L676 412Z" fill="#FFE5A7"/>
  <circle cx="720" cy="482" r="7" fill="#FFCC8F"/>

  <rect x="66.5" y="66.5" width="891" height="891" rx="225.5" stroke="#C7EAFF" stroke-opacity="0.18" stroke-width="5"/>
</svg>
